<?xml version="1.0" standalone="no"?>
<!DOCTYPE svg PUBLIC "-//W3C//DTD SVG 20010904//EN"
 "http://www.w3.org/TR/2001/REC-SVG-20010904/DTD/svg10.dtd">
<svg version="1.0" xmlns="http://www.w3.org/2000/svg"
 width="48.000000pt" height="48.000000pt" viewBox="0 0 48.000000 48.000000"
 preserveAspectRatio="xMidYMid meet">

<g transform="translate(0.000000,48.000000) scale(0.100000,-0.100000)"
fill="#000000" stroke="none">
<path d="M120 471 c-98 -21 -114 -53 -114 -231 0 -114 2 -140 18 -166 25 -43
53 -59 73 -43 12 11 11 14 -11 26 -38 20 -49 72 -45 206 4 112 5 118 32 144
27 28 28 28 167 28 139 0 140 0 167 -28 26 -26 28 -34 33 -135 6 -126 24 -149
34 -43 12 121 -10 198 -66 227 -36 19 -227 29 -288 15z"/>
<path d="M92 368 c4 -30 43 -33 43 -3 0 13 -8 21 -23 23 -20 3 -23 0 -20 -20z"/>
<path d="M195 350 c-73 -30 -96 -132 -42 -188 93 -97 250 9 193 130 -27 56
-93 82 -151 58z m100 -55 c53 -52 18 -135 -56 -135 -71 0 -105 85 -54 135 15
16 36 25 55 25 19 0 40 -9 55 -25z"/>
</g>
</svg>
