<?xml version="1.0" standalone="no"?>
<!DOCTYPE svg PUBLIC "-//W3C//DTD SVG 20010904//EN"
 "http://www.w3.org/TR/2001/REC-SVG-20010904/DTD/svg10.dtd">
<svg version="1.0" xmlns="http://www.w3.org/2000/svg"
 width="48.000000pt" height="48.000000pt" viewBox="0 0 48.000000 48.000000"
 preserveAspectRatio="xMidYMid meet">

<g transform="translate(0.000000,48.000000) scale(0.100000,-0.100000)"
fill="#000000" stroke="none">
<path d="M74 469 c-58 -17 -69 -47 -72 -205 -2 -84 1 -157 7 -182 19 -69 40
-76 216 -80 244 -6 255 5 255 240 0 226 -11 237 -240 237 -74 -1 -149 -5 -166
-10z m74 -81 c22 -22 14 -57 -13 -64 -45 -11 -71 29 -39 60 19 19 36 20 52 4z
m10 -195 l3 -103 -36 0 -35 0 0 106 0 105 33 -3 32 -3 3 -102z m98 96 c4 -8 9
-8 17 0 18 18 75 13 97 -9 17 -17 20 -33 20 -105 l0 -85 -35 0 -34 0 -3 72
c-3 62 -6 73 -22 76 -27 6 -36 -15 -36 -85 l0 -63 -35 0 -35 0 0 105 0 105 29
0 c17 0 33 -5 37 -11z"/>
</g>
</svg>
